<svg width="346" height="274" viewBox="0 0 346 274" fill="none" xmlns="http://www.w3.org/2000/svg">
<path d="M70.248 12.288C70.632 14.208 70.248 16.256 70.12 18.304C69.224 22.784 67.816 26.88 64.36 29.952C60.904 33.024 57.064 35.328 52.84 36.992C51.304 37.632 50.536 38.912 50.536 40.704C50.536 45.184 50.408 49.536 50.28 54.144C50.152 59.392 50.152 64.64 50.536 69.888C51.56 86.656 55.4 103.936 66.28 117.248C66.664 117.76 66.92 118.272 66.28 118.656C65.896 119.04 65.64 118.656 65.512 118.528C58.984 114.432 55.144 107.52 52.2 100.992C49 93.696 46.824 86.144 45.928 78.08C44.776 70.272 44.648 62.208 45.032 54.4C45.032 51.712 44.904 44.16 44.904 42.88C44.776 42.496 44.904 41.728 44.008 42.112C40.552 43.136 38.376 43.52 34.408 44.928C32.744 45.568 33 47.488 33 49.152C32.872 53.376 32.872 57.472 32.872 61.696L32.488 78.72C32.488 83.968 32.616 89.088 32.232 94.08L31.72 106.752C31.592 108.288 31.336 109.824 30.952 111.36C30.696 112.768 30.056 113.664 28.904 114.048C26.344 115.328 25.192 110.976 25.576 109.312C26.216 105.728 26.344 102.144 26.472 98.56C27.112 82.304 28.392 66.56 27.88 50.304C27.88 49.408 27.496 49.024 27.496 48.384C27.496 48 26.856 47.872 26.728 47.872C26.472 48 26.088 48 25.576 48C20.584 49.664 15.848 51.584 11.368 54.144C7.784 56.064 4.072 58.752 3.048 62.848C2.536 64.768 0.872 64.512 1.256 62.592C2.28 56.96 9.704 52.992 14.44 50.56C18.408 48.64 22.12 47.488 26.088 45.824C26.728 45.696 27.112 45.056 27.496 44.16V42.112C27.88 36.736 26.728 15.104 27.112 9.98399C27.112 9.088 28.264 8.448 29.16 8.576C30.184 8.96 31.592 9.47199 31.72 11.136C32.36 15.36 32.232 38.016 33.256 41.344C33.256 41.856 34.152 42.24 34.664 42.112C36.84 41.216 39.272 40.832 41.448 39.936C43.112 39.552 45.032 39.168 45.416 37.248C45.544 36.096 45.928 35.072 45.928 34.048C46.312 30.336 46.824 26.88 47.464 23.552C47.976 19.968 48.616 16.512 49.768 13.056C50.92 8.96 53.096 4.60799 56.296 1.536C57.576 0.383995 59.112 -7.62939e-06 60.904 0.383995C67.176 1.92 69.736 6.784 70.248 12.288ZM68.328 19.2C69.736 12.288 68.328 4.60799 61.16 2.17599C55.272 0.255997 53.224 13.184 52.84 16.768C51.816 21.888 51.304 26.88 51.176 32V33.792C51.176 34.688 51.56 34.944 52.456 34.816C56.424 33.792 59.88 31.232 62.824 28.8C65.896 26.368 67.432 22.656 68.328 19.2ZM77.375 61.312C78.271 62.208 78.271 61.952 79.167 63.36C80.063 64.768 79.423 65.408 80.319 66.432C81.855 67.84 84.799 69.12 86.463 69.504C90.303 70.272 95.039 69.76 97.087 66.048L97.727 64.768C97.855 64.384 98.367 64.256 98.751 64.64C99.647 65.024 99.007 66.176 98.623 66.56C96.191 71.68 90.431 72.192 85.311 71.168C83.263 70.784 80.831 69.376 79.935 68.736C79.935 69.632 79.807 71.04 79.679 71.936C79.551 72.832 79.423 73.088 78.783 75.264C77.887 77.696 76.479 80 74.559 81.92C72.639 83.84 69.951 84.992 67.391 84.608C65.215 84.48 63.167 83.072 61.759 81.152C60.351 79.488 59.839 77.312 59.455 74.88C58.943 71.424 59.455 67.712 61.375 64.768C62.271 63.104 63.551 61.952 65.215 61.312C67.135 60.672 69.055 60.288 71.103 59.904C73.279 59.52 75.839 59.648 77.375 61.312ZM71.871 61.824C70.975 62.464 70.463 63.488 70.975 64.384C71.999 65.664 73.279 66.304 74.943 66.304C75.839 66.176 75.967 66.176 76.607 65.792C76.991 65.664 76.991 64.896 76.863 64.512C76.351 62.976 74.047 61.312 72.511 61.696C72.383 61.824 72.127 61.824 71.871 61.824ZM77.503 70.144C77.503 68.992 77.119 68.48 76.479 68.352H75.455C73.535 68.48 72.127 67.84 70.591 66.816C70.207 66.432 69.567 66.304 69.055 65.92C68.159 65.536 67.519 65.792 67.135 66.432C66.623 66.944 66.367 67.328 66.367 67.584C65.599 69.504 65.215 71.552 65.215 73.6C65.215 76.16 65.599 78.336 66.367 80.256C67.263 82.176 69.055 82.432 70.975 81.792C72.127 81.408 72.767 80.768 73.663 79.872C75.455 77.952 76.607 75.776 77.119 73.344C77.247 72.448 77.631 71.296 77.503 70.144ZM145.878 64.64C146.262 64 146.39 63.488 147.286 64C148.31 64.64 147.286 66.304 146.646 66.816C144.726 70.4 142.038 72.192 138.454 72.832C136.278 72.96 133.974 72.064 132.054 70.656C133.462 75.648 132.95 80.896 131.414 85.632C130.518 88.576 129.494 91.264 127.062 92.8C125.014 94.464 121.942 94.976 119.382 93.568C116.438 92.416 115.158 89.344 113.238 86.656C112.726 86.144 112.214 84.864 111.83 86.272C111.318 88.704 110.55 90.88 108.886 92.544C107.478 94.464 105.046 95.616 102.614 94.72C101.462 94.336 100.566 93.568 99.926 92.672C98.006 90.752 97.366 88.576 96.982 85.888C96.086 82.176 96.214 78.208 96.598 74.24C96.982 71.04 97.11 67.968 97.494 64.512C97.878 63.616 97.75 62.72 98.39 62.208C99.286 61.312 100.438 61.312 101.334 62.208C102.23 62.848 102.742 63.616 102.742 64.64C103.126 65.664 102.742 66.816 102.742 67.84C102.102 72.832 101.078 77.568 101.462 82.56C101.846 84.992 102.102 87.424 102.998 89.856C103.382 90.752 103.894 91.392 104.79 91.648C105.942 92.16 106.966 91.008 107.862 89.984C109.782 87.04 110.294 83.712 110.294 80.64C110.294 79.232 110.294 78.08 110.678 77.056C111.062 76.16 112.086 75.136 113.238 75.52C114.39 75.52 115.158 76.544 115.542 77.696C116.694 82.304 117.59 87.424 121.558 90.624C123.99 92.544 125.526 92.032 127.062 90.496C128.598 88.96 129.366 86.656 130.006 84.608C130.902 80.384 131.03 75.904 130.134 71.424C130.006 70.528 129.622 69.632 129.238 68.864C128.342 67.328 126.422 66.688 125.014 65.664C123.862 65.024 122.71 64.256 122.198 63.232C121.558 62.08 121.558 60.8 122.198 59.392C123.094 58.496 124.502 58.368 125.526 58.496C126.934 58.88 127.574 59.648 128.47 60.544C129.622 61.696 130.39 62.976 130.774 64.64C131.158 65.28 131.158 66.176 131.542 66.688C132.054 67.328 132.694 67.84 133.334 68.224C134.742 69.376 136.278 70.4 137.942 70.528C141.398 70.912 143.958 67.2 145.878 64.64ZM127.958 64.64C128.342 64.512 128.214 64.256 128.598 64.256C127.702 62.72 127.19 61.312 125.27 60.8C125.142 60.672 124.886 60.8 124.502 60.928C124.374 61.056 124.118 61.696 124.502 62.08C125.398 63.104 126.166 64.128 127.574 64.64C127.702 64.768 127.83 64.768 127.958 64.64ZM188.886 64.256C188.886 64.768 188.886 64.64 188.758 65.152C187.222 68.224 185.942 71.168 184.406 74.112C179.414 83.2 172.118 91.392 163.414 84.096C159.702 80.64 158.038 77.184 157.398 74.496C157.27 73.984 157.27 73.088 156.758 73.472C156.374 73.6 156.246 73.984 155.862 74.368C155.094 75.392 154.07 76.416 152.662 77.568C151.254 78.72 149.462 79.616 147.798 79.232C146.134 78.848 144.726 77.696 143.83 76.288C142.294 73.856 141.654 70.784 142.806 68.224C143.83 65.536 146.774 63.104 149.334 62.08C151.766 61.184 153.942 61.184 155.862 62.336C156.502 62.72 156.886 63.104 157.014 63.488C157.014 64.128 156.886 64.512 156.63 64.64C155.734 65.024 155.222 64.512 154.71 64.128C152.79 63.104 150.358 64.256 148.95 66.176C147.798 68.096 146.902 69.888 147.286 72.32C147.414 73.856 148.182 75.392 149.718 75.776C150.87 76.16 152.022 75.264 153.046 74.368C155.094 72.192 156.63 69.248 157.526 66.304C158.55 63.36 159.318 60.416 160.342 57.344C160.726 56.448 161.11 55.552 162.006 55.168C163.414 54.784 164.31 55.936 164.694 57.344C164.694 58.496 164.31 59.648 163.926 60.8C162.774 63.872 161.622 67.328 161.494 70.528C161.366 72.96 162.262 76.288 165.462 81.28C169.174 87.04 175.83 83.328 179.67 77.696C182.102 73.984 184.918 68.864 186.838 64.768L187.222 63.872C187.606 63.36 188.758 63.36 188.886 64.256ZM205.435 68.992C205.051 71.68 204.283 74.368 203.899 77.312C203.387 80.256 203.259 83.2 203.643 86.272C204.027 88.96 206.203 90.24 208.891 89.344C210.939 88.704 212.731 87.424 214.267 85.888C220.027 79.872 223.099 72.704 225.019 68.224C225.403 67.328 225.915 65.408 226.299 64.768C226.939 64.256 227.579 64.384 227.963 64.768C227.835 65.408 227.067 67.584 226.683 68.608L225.659 71.296C223.995 74.624 222.971 77.824 218.107 84.352C216.187 87.04 213.755 89.344 210.811 90.88C209.275 91.776 207.739 92.288 206.075 92.288C203.643 92.032 201.851 90.88 200.699 88.96C198.779 85.888 198.011 82.048 198.139 78.464C198.139 75.392 198.779 72.192 199.163 69.12C199.291 67.968 198.907 67.328 197.755 67.2C196.219 67.072 194.939 67.328 193.531 66.944C192.891 66.56 190.203 65.92 189.307 65.92C188.923 65.92 188.667 65.92 188.539 66.048C188.155 66.432 187.899 66.56 187.515 66.688C187.387 66.816 187.131 66.816 186.747 66.816C186.363 66.432 186.491 65.792 186.491 65.28C186.491 64.384 186.491 63.744 186.107 62.848C185.467 61.952 184.699 61.312 183.803 60.416C181.627 57.984 180.603 54.784 180.603 51.328C180.475 49.152 180.859 47.36 182.011 45.824C182.907 44.288 184.187 43.264 186.107 42.88C187.771 42.496 189.691 43.008 190.843 44.416C191.739 45.312 192.251 46.464 192.379 47.872C193.275 51.84 192.123 55.424 191.227 59.392C191.099 60.288 190.971 61.184 191.355 62.08C191.995 63.616 194.299 64.128 195.835 64.128C197.499 64.256 199.163 64.256 200.827 64.128C204.027 64.128 205.563 65.792 205.435 68.992ZM190.459 51.584C190.843 49.92 190.459 48.128 189.563 46.336C188.923 45.312 187.643 44.8 186.491 45.312C185.083 45.952 184.059 47.104 183.675 48.64C183.163 52.352 183.547 56.704 186.619 59.392C187.515 60.032 188.411 59.904 188.795 59.008C189.691 56.576 190.075 54.016 190.459 51.584ZM268.618 64.384C268.746 64.512 269.002 64.64 269.258 65.024C266.826 72.32 265.418 77.568 262.218 84.608C260.81 87.296 259.274 89.728 256.586 91.136C254.154 92.672 250.826 92.288 248.394 90.88C246.474 89.728 244.938 88.32 243.53 86.528C240.458 83.072 238.282 78.464 237.77 73.856C237.77 73.472 237.386 73.472 237.258 73.6C237.13 73.6 237.13 73.6 237.002 73.728V73.856C236.106 75.776 235.722 77.696 235.082 79.744C234.186 81.92 233.674 83.84 232.778 85.888C230.474 90.24 225.354 87.808 223.946 84.224C222.282 80.768 222.41 75.776 222.794 72.064C223.178 69.12 224.586 65.408 227.274 63.744C229.194 62.592 231.498 61.696 233.93 62.336C234.442 62.72 234.954 62.72 235.85 63.104C236.234 63.104 236.618 62.976 236.618 62.592C237.514 54.272 236.746 45.952 237.13 37.376C237.13 31.872 237.258 26.752 237.642 21.504C237.77 17.408 238.154 13.44 240.074 9.728C241.098 7.808 241.866 6.016 243.786 4.60799C245.066 3.58399 248.01 2.56 248.394 4.864C248.522 6.39999 248.522 7.808 248.138 9.34399C248.138 10.496 247.754 11.648 247.626 12.8C246.218 20.48 243.786 30.336 243.146 38.144C242.762 41.728 242.506 47.36 242.122 50.816C242.122 51.2 241.61 59.264 241.61 63.232C241.61 68.352 242.378 73.856 243.914 78.848C245.066 82.56 246.986 86.016 249.674 88.576C251.338 90.112 253.898 90.624 255.818 89.6C258.25 88.448 259.658 86.016 260.81 83.584C262.73 80 263.754 76.288 265.162 72.576L267.85 64.384C268.234 64.256 268.49 64.256 268.618 64.384ZM241.866 29.696C241.738 30.592 241.994 32 241.994 32.384C242.122 32 242.378 31.616 242.378 31.232L246.218 10.496C246.602 8.576 245.578 8.96 244.682 10.112L243.53 12.8C243.018 14.72 242.762 16.64 242.762 18.304C242.378 22.016 241.994 25.728 241.866 29.696ZM236.234 67.84C236.618 66.176 235.082 64.64 233.546 64C232.394 63.488 231.37 63.744 230.474 64.896C228.938 66.944 228.938 69.12 228.554 71.552C228.17 75.52 227.402 79.616 228.298 83.712C228.682 84.864 230.09 86.912 231.242 84.992C232.138 83.072 232.906 81.152 233.546 79.232C234.442 76.032 234.954 72.704 235.85 69.632C236.106 68.992 236.234 68.48 236.234 67.84Z" fill="white"/>
<path d="M98.248 151.288C98.632 153.208 98.248 155.256 98.12 157.304C97.224 161.784 95.816 165.88 92.36 168.952C88.904 172.024 85.064 174.328 80.84 175.992C79.304 176.632 78.536 177.912 78.536 179.704C78.536 184.184 78.408 188.536 78.28 193.144C78.152 198.392 78.152 203.64 78.536 208.888C79.56 225.656 83.4 242.936 94.28 256.248C94.664 256.76 94.92 257.272 94.28 257.656C93.896 258.04 93.64 257.656 93.512 257.528C86.984 253.432 83.144 246.52 80.2 239.992C77 232.696 74.824 225.144 73.928 217.08C72.776 209.272 72.648 201.208 73.032 193.4C73.032 190.712 72.904 183.16 72.904 181.88C72.776 181.496 72.904 180.728 72.008 181.112C68.552 182.136 66.376 182.52 62.408 183.928C60.744 184.568 61 186.488 61 188.152C60.872 192.376 60.872 196.472 60.872 200.696L60.488 217.72C60.488 222.968 60.616 228.088 60.232 233.08L59.72 245.752C59.592 247.288 59.336 248.824 58.952 250.36C58.696 251.768 58.056 252.664 56.904 253.048C54.344 254.328 53.192 249.976 53.576 248.312C54.216 244.728 54.344 241.144 54.472 237.56C55.112 221.304 56.392 205.56 55.88 189.304C55.88 188.408 55.496 188.024 55.496 187.384C55.496 187 54.856 186.872 54.728 186.872C54.472 187 54.088 187 53.576 187C48.584 188.664 43.848 190.584 39.368 193.144C35.784 195.064 32.072 197.752 31.048 201.848C30.536 203.768 28.872 203.512 29.256 201.592C30.28 195.96 37.704 191.992 42.44 189.56C46.408 187.64 50.12 186.488 54.088 184.824C54.728 184.696 55.112 184.056 55.496 183.16V181.112C55.88 175.736 54.728 154.104 55.112 148.984C55.112 148.088 56.264 147.448 57.16 147.576C58.184 147.96 59.592 148.472 59.72 150.136C60.36 154.36 60.232 177.016 61.256 180.344C61.256 180.856 62.152 181.24 62.664 181.112C64.84 180.216 67.272 179.832 69.448 178.936C71.112 178.552 73.032 178.168 73.416 176.248C73.544 175.096 73.928 174.072 73.928 173.048C74.312 169.336 74.824 165.88 75.464 162.552C75.976 158.968 76.616 155.512 77.768 152.056C78.92 147.96 81.096 143.608 84.296 140.536C85.576 139.384 87.112 139 88.904 139.384C95.176 140.92 97.736 145.784 98.248 151.288ZM96.328 158.2C97.736 151.288 96.328 143.608 89.16 141.176C83.272 139.256 81.224 152.184 80.84 155.768C79.816 160.888 79.304 165.88 79.176 171V172.792C79.176 173.688 79.56 173.944 80.456 173.816C84.424 172.792 87.88 170.232 90.824 167.8C93.896 165.368 95.432 161.656 96.328 158.2ZM121.759 216.056C118.815 219.256 117.151 221.176 113.439 222.584C110.367 223.736 106.911 223.736 103.711 223.224C99.487 222.328 95.391 220.536 92.447 217.464C89.375 214.392 87.839 208.12 89.247 204.024C90.655 197.88 97.567 191.864 101.535 196.856C102.943 198.264 104.095 201.464 102.559 203.384C100.767 206.456 97.823 205.432 95.135 206.84L94.751 207.224L94.623 207.864C94.879 209.784 94.623 216.056 102.815 220.152C104.991 221.304 107.295 221.688 109.983 221.432C112.927 221.176 115.615 220.024 117.791 217.848C120.223 215.8 120.863 214.648 123.295 211.704C125.727 208.632 127.391 206.456 128.927 203.768C129.311 203.768 129.567 203.768 129.695 203.896C130.591 204.28 129.311 206.2 128.927 206.584C126.751 209.656 124.191 213.112 121.759 216.056ZM96.799 198.904C95.391 200.568 94.879 201.976 94.495 204.152C94.495 204.536 94.879 204.408 95.263 204.408C97.183 204.024 98.591 204.024 99.999 203.128L101.407 201.848C101.791 200.44 100.895 199.416 99.743 198.008C99.231 197.624 98.719 197.624 98.079 198.008C97.567 198.392 97.311 198.392 96.799 198.904ZM171.886 203.256C171.886 203.768 171.886 203.64 171.758 204.152C170.222 207.224 168.942 210.168 167.406 213.112C162.414 222.2 155.118 230.392 146.414 223.096C142.702 219.64 141.038 216.184 140.398 213.496C140.27 212.984 140.27 212.088 139.758 212.472C139.374 212.6 139.246 212.984 138.862 213.368C138.094 214.392 137.07 215.416 135.662 216.568C134.254 217.72 132.462 218.616 130.798 218.232C129.134 217.848 127.726 216.696 126.83 215.288C125.294 212.856 124.654 209.784 125.806 207.224C126.83 204.536 129.774 202.104 132.334 201.08C134.766 200.184 136.942 200.184 138.862 201.336C139.502 201.72 139.886 202.104 140.014 202.488C140.014 203.128 139.886 203.512 139.63 203.64C138.734 204.024 138.222 203.512 137.71 203.128C135.79 202.104 133.358 203.256 131.95 205.176C130.798 207.096 129.902 208.888 130.286 211.32C130.414 212.856 131.182 214.392 132.718 214.776C133.87 215.16 135.022 214.264 136.046 213.368C138.094 211.192 139.63 208.248 140.526 205.304C141.55 202.36 142.318 199.416 143.342 196.344C143.726 195.448 144.11 194.552 145.006 194.168C146.414 193.784 147.31 194.936 147.694 196.344C147.694 197.496 147.31 198.648 146.926 199.8C145.774 202.872 144.622 206.328 144.494 209.528C144.366 211.96 145.262 215.288 148.462 220.28C152.174 226.04 158.83 222.328 162.67 216.696C165.102 212.984 167.918 207.864 169.838 203.768L170.222 202.872C170.606 202.36 171.758 202.36 171.886 203.256ZM214.163 203.768C215.187 202.872 215.955 203.896 215.571 204.792C215.571 205.304 213.395 210.68 212.755 211.576C208.659 219.64 205.715 225.656 200.723 231.672C197.651 235.384 194.067 238.584 191.123 240.632C187.155 243.576 183.059 243.192 179.347 240.12C173.459 234.872 171.923 226.04 170.515 218.872C169.107 211.704 169.107 204.536 170.003 197.368C170.515 191.864 171.283 185.72 171.667 178.552C171.667 177.784 171.155 177.272 170.259 176.888C167.955 176.248 154.899 175.608 151.571 175.608C150.035 175.48 130.195 174.584 130.195 174.712H125.331C122.643 174.712 119.315 174.84 117.139 174.712C116.243 174.584 115.091 173.816 116.243 172.92C116.627 172.664 117.011 172.536 117.395 172.536C119.827 172.152 122.131 172.28 124.563 172.28C133.907 172.28 170.771 174.072 171.155 174.072C171.795 174.072 172.307 173.688 172.691 173.048L173.843 169.848C174.227 168.44 174.483 166.904 174.995 165.368C175.891 162.68 177.555 159.864 180.499 159.352C182.931 158.712 184.851 159.864 185.747 162.296C186.771 164.984 187.411 167.928 186.515 170.616C186.515 171.512 186.259 172.152 186.259 173.048C186.259 173.56 186.515 173.944 187.027 174.072C187.411 174.456 188.051 174.456 188.435 174.456C191.123 174.456 205.075 175.992 207.123 176.376C208.019 176.76 208.787 177.144 208.787 178.168C208.915 178.68 208.915 179.832 208.019 179.448C203.155 178.04 188.947 177.272 187.923 177.272C186.771 177.4 185.747 177.656 185.235 178.68C184.595 179.704 179.987 187.256 178.323 190.328C176.787 193.016 176.531 195.96 176.147 199.032C175.635 205.56 175.891 213.24 176.787 219.768C177.427 224.888 180.499 241.016 189.075 238.968C194.195 237.944 198.803 230.648 201.235 227.576C203.283 224.632 208.147 217.08 214.163 203.768ZM179.987 172.28C179.859 172.408 179.987 172.792 180.115 173.304C180.371 173.944 181.011 174.2 181.907 174.072C182.547 173.816 183.059 173.304 183.315 172.664C184.211 171.256 184.211 169.72 184.211 168.056C184.211 166.648 184.211 165.496 183.699 164.088C183.315 163.576 182.931 163.448 182.419 163.576C182.035 163.96 181.651 164.472 181.267 165.24C180.883 166.648 180.755 167.928 180.371 169.08C180.243 169.976 179.987 171.896 179.987 172.28ZM178.963 178.808C178.707 179.448 178.067 186.104 178.067 186.488C178.067 186.616 178.195 186.744 178.323 186.744C178.323 186.36 180.627 181.752 181.523 179.832C181.523 179.192 181.523 178.936 181.523 178.936C181.523 178.04 180.883 177.528 179.987 177.912C179.603 178.04 179.347 178.296 178.963 178.808ZM265.453 210.68C264.045 213.624 263.149 215.544 261.101 218.488C256.877 224.12 253.549 229.24 247.533 231.16C245.613 231.8 243.437 231.928 241.773 230.776C239.213 229.24 238.573 225.784 238.061 222.84C237.677 219.768 236.909 216.696 235.757 213.752C235.373 212.728 234.989 211.448 233.965 210.808C232.941 210.424 231.533 210.808 230.637 211.448C229.613 212.344 229.101 213.112 228.461 214.264C226.541 217.336 225.005 220.408 223.085 223.608C222.701 224.248 222.317 224.632 221.933 225.016C220.397 225.912 218.861 224.632 217.965 223.096C216.557 221.176 216.173 219 215.789 216.568C212.333 198.776 212.333 180.6 215.917 162.808C216.813 158.84 217.709 155.256 219.885 151.8C223.341 146.296 232.813 142.456 238.701 146.424C241.261 148.344 243.053 151.544 242.925 154.744C242.797 157.816 241.261 160.632 239.725 163.32C235.501 171 230.893 177.912 225.901 185.08C223.853 188.024 221.549 190.968 220.653 194.552C220.013 196.984 219.885 199.672 220.013 202.232C220.013 207.352 220.525 212.472 221.421 217.72C221.549 218.104 221.549 218.488 221.933 218.488C222.317 218.872 222.829 218.488 223.213 217.976C224.749 216.056 225.645 213.88 227.053 211.832C228.461 209.784 230.253 207.992 232.685 207.352C236.653 206.712 239.981 210.04 241.517 213.496C243.053 217.208 243.053 221.048 244.205 225.016C244.589 226.424 245.101 227.704 246.509 228.088C246.893 228.216 247.405 228.088 248.301 227.96C251.245 226.936 253.421 224.376 255.341 221.944C258.285 218.488 260.333 214.904 262.765 210.296C264.173 207.352 264.813 205.816 265.325 203.768C265.709 202.616 267.629 202.36 268.013 203.768C267.373 206.456 266.349 208.504 265.453 210.68ZM220.397 175.224C220.269 177.656 220.013 179.832 220.013 182.264C220.013 183.672 219.757 185.592 220.653 187C221.037 187.384 221.805 186.616 224.237 183.416C226.285 180.472 228.333 177.016 230.253 173.944C232.813 169.464 235.501 165.496 238.061 161.016C239.213 159.352 239.981 157.56 240.365 155.384C241.005 152.824 240.109 150.264 237.677 148.856C236.397 148.216 235.245 147.704 234.221 147.448C232.301 146.808 230.509 147.192 228.973 148.728C227.565 150.136 226.669 151.288 226.157 152.952C224.493 156.408 223.341 159.864 222.445 163.192C221.549 167.16 220.781 171.256 220.397 175.224ZM297.759 216.056C294.815 219.256 293.151 221.176 289.439 222.584C286.367 223.736 282.911 223.736 279.711 223.224C275.487 222.328 271.391 220.536 268.447 217.464C265.375 214.392 263.839 208.12 265.247 204.024C266.655 197.88 273.567 191.864 277.535 196.856C278.943 198.264 280.095 201.464 278.559 203.384C276.767 206.456 273.823 205.432 271.135 206.84L270.751 207.224L270.623 207.864C270.879 209.784 270.623 216.056 278.815 220.152C280.991 221.304 283.295 221.688 285.983 221.432C288.927 221.176 291.615 220.024 293.791 217.848C296.223 215.8 296.863 214.648 299.295 211.704C301.727 208.632 303.391 206.456 304.927 203.768C305.311 203.768 305.567 203.768 305.695 203.896C306.591 204.28 305.311 206.2 304.927 206.584C302.751 209.656 300.191 213.112 297.759 216.056ZM272.799 198.904C271.391 200.568 270.879 201.976 270.495 204.152C270.495 204.536 270.879 204.408 271.263 204.408C273.183 204.024 274.591 204.024 275.999 203.128L277.407 201.848C277.791 200.44 276.895 199.416 275.743 198.008C275.231 197.624 274.719 197.624 274.079 198.008C273.567 198.392 273.311 198.392 272.799 198.904ZM323.31 207.992C322.926 210.68 322.158 213.368 321.774 216.312C321.262 219.256 321.134 222.2 321.518 225.272C321.902 227.96 324.078 229.24 326.766 228.344C328.814 227.704 330.606 226.424 332.142 224.888C337.902 218.872 340.974 211.704 342.894 207.224C343.278 206.328 343.79 204.408 344.174 203.768C344.814 203.256 345.454 203.384 345.838 203.768C345.71 204.408 344.942 206.584 344.558 207.608L343.534 210.296C341.87 213.624 340.846 216.824 335.982 223.352C334.062 226.04 331.63 228.344 328.686 229.88C327.15 230.776 325.614 231.288 323.95 231.288C321.518 231.032 319.726 229.88 318.574 227.96C316.654 224.888 315.886 221.048 316.014 217.464C316.014 214.392 316.654 211.192 317.038 208.12C317.166 206.968 316.782 206.328 315.63 206.2C314.094 206.072 312.814 206.328 311.406 205.944C310.766 205.56 308.078 204.92 307.182 204.92C306.798 204.92 306.542 204.92 306.414 205.048C306.03 205.432 305.774 205.56 305.39 205.688C305.262 205.816 305.006 205.816 304.622 205.816C304.238 205.432 304.366 204.792 304.366 204.28C304.366 203.384 304.366 202.744 303.982 201.848C303.342 200.952 302.574 200.312 301.678 199.416C299.502 196.984 298.478 193.784 298.478 190.328C298.35 188.152 298.734 186.36 299.886 184.824C300.782 183.288 302.062 182.264 303.982 181.88C305.646 181.496 307.566 182.008 308.718 183.416C309.614 184.312 310.126 185.464 310.254 186.872C311.15 190.84 309.998 194.424 309.102 198.392C308.974 199.288 308.846 200.184 309.23 201.08C309.87 202.616 312.174 203.128 313.71 203.128C315.374 203.256 317.038 203.256 318.702 203.128C321.902 203.128 323.438 204.792 323.31 207.992ZM308.334 190.584C308.718 188.92 308.334 187.128 307.438 185.336C306.798 184.312 305.518 183.8 304.366 184.312C302.958 184.952 301.934 186.104 301.55 187.64C301.038 191.352 301.422 195.704 304.494 198.392C305.39 199.032 306.286 198.904 306.67 198.008C307.566 195.576 307.95 193.016 308.334 190.584Z" fill="white"/>
<path d="M209.528 126.704C209.592 127.024 209.528 127.216 209.272 127.28C209.144 127.408 208.952 127.472 208.632 127.472C206.648 127.472 203.448 127.6 200.312 127.664C200.312 129.456 200.248 131.12 200.248 131.888C200.248 133.424 200.504 136.496 199.992 136.496C199.032 136.688 198.392 136.688 198.328 135.408C198.328 134.384 198.392 131.12 198.456 127.728C194.04 127.92 190.2 127.92 190.008 127.92C189.816 127.856 189.688 127.92 189.496 127.472C189.432 127.024 189.816 126.896 190.136 126.896C192.888 126.832 195.704 126.704 198.456 126.704C198.456 123.44 198.584 120.368 198.584 119.408C198.584 117.872 200.376 117.616 200.376 119.408C200.376 119.984 200.312 123.44 200.312 126.704C203.128 126.576 205.944 126.512 208.824 126.512C209.08 126.512 209.336 126.512 209.528 126.704Z" fill="white"/>
<path d="M134.322 271.195C133.6 271.195 132.968 271.12 132.428 270.971C131.887 270.814 131.432 270.596 131.061 270.316C130.696 270.03 130.416 269.688 130.221 269.291C130.025 268.887 129.911 268.435 129.879 267.934H130.65C130.729 268.415 130.875 268.816 131.09 269.135C131.305 269.454 131.568 269.708 131.881 269.896C132.2 270.085 132.561 270.219 132.965 270.297C133.368 270.375 133.798 270.414 134.254 270.414C134.729 270.414 135.156 270.365 135.533 270.268C135.917 270.163 136.243 270.017 136.51 269.828C136.783 269.633 136.992 269.402 137.135 269.135C137.278 268.861 137.35 268.555 137.35 268.217C137.35 267.859 137.288 267.559 137.164 267.318C137.04 267.071 136.832 266.856 136.539 266.674C136.246 266.492 135.859 266.329 135.377 266.186C134.902 266.042 134.309 265.896 133.6 265.746C133.014 265.616 132.509 265.466 132.086 265.297C131.669 265.128 131.324 264.932 131.051 264.711C130.777 264.483 130.576 264.226 130.445 263.939C130.315 263.646 130.25 263.308 130.25 262.924C130.25 262.507 130.338 262.126 130.514 261.781C130.689 261.436 130.937 261.14 131.256 260.893C131.581 260.645 131.969 260.453 132.418 260.316C132.874 260.18 133.375 260.111 133.922 260.111C134.469 260.111 134.97 260.176 135.426 260.307C135.882 260.43 136.279 260.613 136.617 260.854C136.962 261.094 137.239 261.387 137.447 261.732C137.662 262.077 137.799 262.468 137.857 262.904H137.105C137.034 262.618 136.917 262.351 136.754 262.104C136.591 261.856 136.38 261.645 136.119 261.469C135.865 261.286 135.559 261.146 135.201 261.049C134.85 260.945 134.446 260.893 133.99 260.893C133.033 260.893 132.307 261.068 131.812 261.42C131.324 261.771 131.08 262.253 131.08 262.865C131.08 263.145 131.126 263.389 131.217 263.598C131.308 263.806 131.461 263.995 131.676 264.164C131.897 264.327 132.187 264.473 132.545 264.604C132.903 264.727 133.349 264.844 133.883 264.955C134.195 265.02 134.518 265.089 134.85 265.16C135.182 265.232 135.504 265.316 135.816 265.414C136.135 265.512 136.438 265.632 136.725 265.775C137.011 265.919 137.258 266.094 137.467 266.303C137.682 266.511 137.851 266.762 137.975 267.055C138.105 267.341 138.17 267.683 138.17 268.08C138.17 268.536 138.072 268.956 137.877 269.34C137.688 269.717 137.421 270.046 137.076 270.326C136.738 270.6 136.331 270.814 135.855 270.971C135.387 271.12 134.876 271.195 134.322 271.195ZM146.646 271H145.865V260.307H146.646V271ZM162.994 271H161.969L155.445 261.234V271H154.664V260.307H155.738L162.213 270.053V260.307H162.994V271ZM178.473 263.168C178.401 262.849 178.268 262.553 178.072 262.279C177.877 261.999 177.633 261.758 177.34 261.557C177.047 261.348 176.708 261.186 176.324 261.068C175.947 260.951 175.54 260.893 175.104 260.893C174.485 260.893 173.922 260.993 173.414 261.195C172.913 261.397 172.483 261.697 172.125 262.094C171.773 262.484 171.5 262.976 171.305 263.568C171.116 264.154 171.021 264.838 171.021 265.619C171.021 266.4 171.116 267.09 171.305 267.689C171.5 268.282 171.773 268.78 172.125 269.184C172.483 269.587 172.91 269.893 173.404 270.102C173.906 270.31 174.462 270.414 175.074 270.414C175.999 270.414 176.76 270.209 177.359 269.799C177.958 269.382 178.329 268.777 178.473 267.982H179.283C179.205 268.49 179.046 268.946 178.805 269.35C178.564 269.747 178.261 270.082 177.896 270.355C177.532 270.629 177.112 270.837 176.637 270.98C176.161 271.124 175.647 271.195 175.094 271.195C174.339 271.195 173.658 271.065 173.053 270.805C172.454 270.538 171.943 270.163 171.52 269.682C171.096 269.2 170.771 268.617 170.543 267.934C170.315 267.243 170.201 266.472 170.201 265.619C170.201 264.773 170.315 264.011 170.543 263.334C170.771 262.657 171.096 262.081 171.52 261.605C171.949 261.124 172.464 260.756 173.062 260.502C173.668 260.242 174.345 260.111 175.094 260.111C175.608 260.111 176.096 260.186 176.559 260.336C177.027 260.486 177.447 260.697 177.818 260.971C178.189 261.238 178.502 261.56 178.756 261.938C179.01 262.309 179.186 262.719 179.283 263.168H178.473ZM194.4 271H186.676V260.307H194.137V261.088H187.457V265.043H193.717V265.824H187.457V270.219H194.4V271ZM222.291 263.031C222.291 263.878 221.891 264.656 221.09 265.365L218.648 267.348C218.206 267.738 217.89 268.171 217.701 268.646C217.519 269.122 217.428 269.639 217.428 270.199H222.203V271H216.471C216.464 270.863 216.458 270.756 216.451 270.678C216.451 270.593 216.451 270.515 216.451 270.443C216.451 269.805 216.555 269.203 216.764 268.637C216.979 268.064 217.301 267.543 217.73 267.074L220.143 265.033C220.598 264.682 220.937 264.34 221.158 264.008C221.386 263.669 221.503 263.344 221.51 263.031C221.51 262.732 221.464 262.452 221.373 262.191C221.288 261.931 221.155 261.706 220.973 261.518C220.797 261.329 220.576 261.179 220.309 261.068C220.042 260.958 219.729 260.902 219.371 260.902C218.844 260.902 218.382 261 217.984 261.195C217.594 261.391 217.252 261.7 216.959 262.123L216.354 261.703C216.516 261.449 216.708 261.225 216.93 261.029C217.158 260.834 217.402 260.668 217.662 260.531C217.929 260.395 218.206 260.29 218.492 260.219C218.785 260.147 219.078 260.111 219.371 260.111C219.801 260.111 220.195 260.183 220.553 260.326C220.911 260.463 221.217 260.658 221.471 260.912C221.731 261.166 221.933 261.472 222.076 261.83C222.219 262.188 222.291 262.589 222.291 263.031ZM238.424 265.648C238.424 266.397 238.336 267.107 238.16 267.777C237.984 268.448 237.73 269.037 237.398 269.545C237.073 270.053 236.669 270.456 236.188 270.756C235.712 271.049 235.172 271.195 234.566 271.195C233.961 271.195 233.421 271.046 232.945 270.746C232.47 270.447 232.066 270.043 231.734 269.535C231.409 269.027 231.158 268.438 230.982 267.768C230.813 267.097 230.729 266.391 230.729 265.648C230.729 264.906 230.813 264.2 230.982 263.529C231.158 262.859 231.409 262.273 231.734 261.771C232.06 261.264 232.46 260.86 232.936 260.561C233.417 260.261 233.961 260.111 234.566 260.111C235.172 260.111 235.712 260.261 236.188 260.561C236.669 260.854 237.076 261.254 237.408 261.762C237.74 262.263 237.991 262.849 238.16 263.52C238.336 264.19 238.424 264.9 238.424 265.648ZM237.652 265.648C237.652 265.004 237.584 264.395 237.447 263.822C237.317 263.243 237.122 262.738 236.861 262.309C236.607 261.879 236.288 261.537 235.904 261.283C235.52 261.029 235.077 260.902 234.576 260.902C234.081 260.902 233.642 261.029 233.258 261.283C232.88 261.531 232.561 261.872 232.301 262.309C232.04 262.738 231.842 263.243 231.705 263.822C231.575 264.395 231.51 265.004 231.51 265.648C231.51 266.286 231.575 266.892 231.705 267.465C231.835 268.038 232.027 268.542 232.281 268.979C232.542 269.415 232.864 269.76 233.248 270.014C233.632 270.268 234.075 270.395 234.576 270.395C235.084 270.395 235.53 270.268 235.914 270.014C236.298 269.753 236.617 269.405 236.871 268.969C237.132 268.533 237.327 268.028 237.457 267.455C237.587 266.882 237.652 266.28 237.652 265.648ZM253.678 265.648C253.678 266.397 253.59 267.107 253.414 267.777C253.238 268.448 252.984 269.037 252.652 269.545C252.327 270.053 251.923 270.456 251.441 270.756C250.966 271.049 250.426 271.195 249.82 271.195C249.215 271.195 248.674 271.046 248.199 270.746C247.724 270.447 247.32 270.043 246.988 269.535C246.663 269.027 246.412 268.438 246.236 267.768C246.067 267.097 245.982 266.391 245.982 265.648C245.982 264.906 246.067 264.2 246.236 263.529C246.412 262.859 246.663 262.273 246.988 261.771C247.314 261.264 247.714 260.86 248.189 260.561C248.671 260.261 249.215 260.111 249.82 260.111C250.426 260.111 250.966 260.261 251.441 260.561C251.923 260.854 252.33 261.254 252.662 261.762C252.994 262.263 253.245 262.849 253.414 263.52C253.59 264.19 253.678 264.9 253.678 265.648ZM252.906 265.648C252.906 265.004 252.838 264.395 252.701 263.822C252.571 263.243 252.376 262.738 252.115 262.309C251.861 261.879 251.542 261.537 251.158 261.283C250.774 261.029 250.331 260.902 249.83 260.902C249.335 260.902 248.896 261.029 248.512 261.283C248.134 261.531 247.815 261.872 247.555 262.309C247.294 262.738 247.096 263.243 246.959 263.822C246.829 264.395 246.764 265.004 246.764 265.648C246.764 266.286 246.829 266.892 246.959 267.465C247.089 268.038 247.281 268.542 247.535 268.979C247.796 269.415 248.118 269.76 248.502 270.014C248.886 270.268 249.329 270.395 249.83 270.395C250.338 270.395 250.784 270.268 251.168 270.014C251.552 269.753 251.871 269.405 252.125 268.969C252.385 268.533 252.581 268.028 252.711 267.455C252.841 266.882 252.906 266.28 252.906 265.648ZM267.584 265.16C267.584 264.457 267.516 263.842 267.379 263.314C267.249 262.781 267.066 262.335 266.832 261.977C266.598 261.618 266.318 261.348 265.992 261.166C265.673 260.984 265.325 260.893 264.947 260.893C264.576 260.893 264.241 260.974 263.941 261.137C263.648 261.299 263.398 261.511 263.189 261.771C262.988 262.032 262.831 262.331 262.721 262.67C262.61 263.002 262.555 263.337 262.555 263.676C262.555 264.034 262.607 264.372 262.711 264.691C262.822 265.01 262.978 265.29 263.18 265.531C263.388 265.772 263.642 265.964 263.941 266.107C264.247 266.244 264.592 266.312 264.977 266.312C265.185 266.312 265.403 266.286 265.631 266.234C265.859 266.176 266.087 266.098 266.314 266C266.542 265.896 266.764 265.772 266.979 265.629C267.193 265.486 267.395 265.329 267.584 265.16ZM268.395 265.346C268.395 267.292 268.102 268.754 267.516 269.73C266.936 270.707 266.028 271.195 264.791 271.195C264.042 271.195 263.421 270.993 262.926 270.59C262.431 270.18 262.118 269.6 261.988 268.852H262.789C262.828 269.138 262.903 269.382 263.014 269.584C263.131 269.779 263.277 269.939 263.453 270.062C263.635 270.186 263.847 270.277 264.088 270.336C264.329 270.388 264.592 270.414 264.879 270.414C265.25 270.414 265.592 270.323 265.904 270.141C266.217 269.958 266.493 269.688 266.734 269.33C266.975 268.972 267.171 268.526 267.32 267.992C267.477 267.452 267.574 266.83 267.613 266.127C267.451 266.251 267.275 266.371 267.086 266.488C266.897 266.599 266.689 266.7 266.461 266.791C266.24 266.882 265.995 266.957 265.729 267.016C265.462 267.068 265.165 267.094 264.84 267.094C264.384 267.094 263.967 267.006 263.59 266.83C263.212 266.654 262.89 266.417 262.623 266.117C262.356 265.811 262.148 265.456 261.998 265.053C261.848 264.649 261.773 264.219 261.773 263.764C261.773 263.282 261.842 262.823 261.979 262.387C262.122 261.944 262.327 261.553 262.594 261.215C262.861 260.876 263.189 260.609 263.58 260.414C263.977 260.212 264.426 260.111 264.928 260.111C265.488 260.111 265.982 260.229 266.412 260.463C266.842 260.691 267.203 261.029 267.496 261.479C267.789 261.921 268.01 262.468 268.16 263.119C268.316 263.77 268.395 264.512 268.395 265.346Z" fill="white"/>
</svg>
